<svg cursor="pointer" preserveAspectRatio="xMidYMid meet" viewBox="-166.667 0 1333.333 1000" xmlns="http://www.w3.org/2000/svg" xmlns:xlink="http://www.w3.org/1999/xlink"><mask id="a" height="591.1" stroke-width="0" width="1915.481" x="-478.87" y="-147.775"><path d="m12.119 352.225h957.74v295.55h-957.74z"/><path d="m55.032 439.458c6.666-11.545 91.531-60.541 104.862-60.541s98.196 48.996 104.861 60.541 6.666 109.539 0 121.084-91.53 60.541-104.861 60.541-98.196-48.996-104.862-60.541-6.665-109.539 0-121.084z" fill="#fff" stroke="none"/><path d="m378.031 399.826v39.753q-.828.226-2.597.452-1.77.226-3.501.226-1.732 0-3.05-.264-1.317-.263-2.221-.941-.903-.677-1.355-1.882-.452-1.205-.452-3.162v-11.745h-14.455v17.316q-.829.226-2.598.452-1.769.226-3.501.226-1.732 0-3.049-.264-1.318-.263-2.221-.941-.904-.677-1.356-1.882-.451-1.205-.451-3.162v-39.753q.828-.151 2.635-.415 1.807-.263 3.463-.263 1.732 0 3.049.263 1.318.264 2.222.942.903.677 1.355 1.882.452 1.205.452 3.162v12.046h14.455v-17.617q.828-.151 2.635-.415 1.807-.263 3.464-.263 1.731 0 3.049.263 1.318.264 2.221.942.904.677 1.355 1.882.452 1.205.452 3.162zm17.317 17.166q0-5.872 1.844-10.39 1.845-4.517 5.045-7.566 3.2-3.05 7.529-4.631 4.329-1.581 9.374-1.581 5.044 0 9.373 1.581 4.329 1.581 7.567 4.631 3.237 3.049 5.082 7.566 1.845 4.518 1.845 10.39 0 5.873-1.807 10.428-1.807 4.555-5.007 7.604-3.2 3.05-7.567 4.631-4.367 1.581-9.486 1.581-5.12 0-9.487-1.619-4.367-1.619-7.529-4.706-3.162-3.087-4.969-7.604-1.807-4.517-1.807-10.315zm13.552 0q0 6.852 2.786 10.24 2.786 3.388 7.454 3.388 4.743 0 7.529-3.388 2.785-3.388 2.785-10.24 0-6.776-2.748-10.164-2.748-3.388-7.491-3.388-4.668 0-7.492 3.35-2.823 3.351-2.823 10.202zm68.514 8.132h-3.99v14.455q-.828.226-2.598.452-1.769.226-3.501.226-1.731 0-3.049-.264-1.318-.263-2.183-.941-.866-.677-1.318-1.882-.452-1.205-.452-3.162v-35.462q0-1.581.866-2.447.866-.866 2.372-1.393 2.56-.903 5.948-1.317 3.388-.414 7.228-.414 10.39 0 15.66 4.366 5.27 4.367 5.27 11.821 0 4.668-2.409 7.981-2.409 3.313-5.722 5.12 2.71 3.689 5.345 6.926 2.636 3.238 4.141 5.873-.752 2.635-2.748 4.028-1.995 1.393-4.479 1.393-1.657 0-2.861-.377-1.205-.376-2.109-1.054-.903-.677-1.656-1.656-.753-.979-1.43-2.108zm-4.066-10.014h4.819q2.861 0 4.517-1.468 1.657-1.468 1.657-4.329 0-2.861-1.845-4.33-1.844-1.468-5.835-1.468-1.129 0-1.807.076-.677.075-1.506.225zm55.791-15.284v39.753q-.829.226-2.598.452-1.769.226-3.501.226-1.732 0-3.049-.264-1.318-.263-2.221-.941-.904-.677-1.355-1.882-.452-1.205-.452-3.162v-39.753q.828-.151 2.635-.415 1.807-.263 3.463-.263 1.732 0 3.05.263 1.317.264 2.221.942.903.677 1.355 1.882.452 1.205.452 3.162zm20.554 25.599 17.317-20.63h-18.522q-.527-.828-.979-2.258-.451-1.431-.451-3.012 0-2.936 1.317-4.216 1.318-1.28 3.426-1.28h28.083q3.313 2.71 3.313 7.228 0 1.882-.866 3.726-.866 1.845-2.221 3.501l-17.091 20.63h19.274q.528.828.979 2.259.452 1.43.452 3.011 0 2.937-1.318 4.217-1.317 1.279-3.425 1.279h-29.665q-1.28-1.054-2.108-2.861-.828-1.807-.828-4.141 0-1.882.979-3.839.979-1.958 2.334-3.614zm48.713-8.433q0-5.872 1.844-10.39 1.845-4.517 5.045-7.566 3.199-3.05 7.529-4.631 4.329-1.581 9.373-1.581 5.045 0 9.374 1.581 4.329 1.581 7.567 4.631 3.237 3.049 5.082 7.566 1.844 4.518 1.844 10.39 0 5.873-1.807 10.428-1.807 4.555-5.006 7.604-3.2 3.05-7.567 4.631-4.367 1.581-9.487 1.581-5.119 0-9.486-1.619-4.367-1.619-7.529-4.706-3.162-3.087-4.969-7.604-1.807-4.517-1.807-10.315zm13.552 0q0 6.852 2.786 10.24 2.785 3.388 7.453 3.388 4.744 0 7.529-3.388 2.786-3.388 2.786-10.24 0-6.776-2.748-10.164-2.748-3.388-7.491-3.388-4.668 0-7.492 3.35-2.823 3.351-2.823 10.202zm92.757-17.392v38.699q-1.054 1.054-3.049 1.619-1.995.565-4.781.565-2.786 0-5.27-.828-2.485-.829-4.066-3.991l-7.454-15.208q-1.129-2.334-2.032-4.405-.904-2.07-1.958-4.781l-.452.075q.302 4.066.339 8.282.038 4.217.038 8.282v11.67q-.828.226-2.522.452-1.694.226-3.351.226-1.656 0-2.936-.226-1.28-.226-2.108-.903-.828-.678-1.28-1.845-.452-1.167-.452-3.049v-37.645q1.054-1.506 3.238-2.259 2.183-.753 4.668-.753 2.785 0 5.307.866 2.523.866 4.029 3.953l7.529 15.208q1.129 2.334 2.032 4.405.904 2.07 1.958 4.781l.376-.076q-.301-4.065-.376-8.131-.075-4.066-.075-8.131v-12.197q.828-.226 2.522-.452 1.694-.226 3.35-.226 3.313 0 5.045 1.167 1.731 1.167 1.731 4.856zm45.4 25.825 17.317-20.63h-18.521q-.527-.828-.979-2.258-.452-1.431-.452-3.012 0-2.936 1.318-4.216 1.317-1.28 3.426-1.28h28.083q3.313 2.71 3.313 7.228 0 1.882-.866 3.726-.866 1.845-2.221 3.501l-17.091 20.63h19.274q.527.828.979 2.259.452 1.43.452 3.011 0 2.937-1.318 4.217-1.318 1.279-3.426 1.279h-29.664q-1.28-1.054-2.108-2.861-.828-1.807-.828-4.141 0-1.882.978-3.839.979-1.958 2.334-3.614zm50.972 7.679v-31.847q0-3.238 1.882-5.12 1.882-1.882 5.12-1.882h24.846q.527.828.941 2.183.414 1.355.414 2.861 0 2.861-1.242 4.066-1.243 1.204-3.276 1.204h-15.886v7.002h16.941q.527.829.941 2.146.414 1.318.414 2.823 0 2.862-1.205 4.066-1.205 1.205-3.237 1.205h-13.854v7.905h19.35q.527.828.941 2.184.414 1.355.414 2.861 0 2.861-1.242 4.103-1.243 1.242-3.275 1.242h-21.985q-3.238 0-5.12-1.882-1.882-1.882-1.882-5.12zm68.138-7.98h-3.991v14.455q-.828.226-2.597.452-1.77.226-3.501.226-1.732 0-3.05-.264-1.317-.263-2.183-.941-.866-.677-1.318-1.882-.451-1.205-.451-3.162v-35.462q0-1.581.866-2.447.865-.866 2.371-1.393 2.56-.903 5.948-1.317 3.388-.414 7.228-.414 10.39 0 15.66 4.366 5.271 4.367 5.271 11.821 0 4.668-2.41 7.981-2.409 3.313-5.722 5.12 2.711 3.689 5.346 6.926 2.635 3.238 4.141 5.873-.753 2.635-2.748 4.028-1.995 1.393-4.48 1.393-1.656 0-2.861-.377-1.205-.376-2.108-1.054-.904-.677-1.657-1.656-.752-.979-1.43-2.108zm-4.066-10.014h4.819q2.861 0 4.517-1.468 1.656-1.468 1.656-4.329 0-2.861-1.844-4.33-1.845-1.468-5.835-1.468-1.13 0-1.807.076-.678.075-1.506.225zm40.355 1.882q0-5.872 1.845-10.39 1.845-4.517 5.045-7.566 3.199-3.05 7.529-4.631 4.329-1.581 9.373-1.581 5.045 0 9.374 1.581 4.329 1.581 7.566 4.631 3.238 3.049 5.083 7.566 1.844 4.518 1.844 10.39 0 5.873-1.807 10.428-1.807 4.555-5.007 7.604-3.199 3.05-7.566 4.631-4.367 1.581-9.487 1.581-5.12 0-9.486-1.619-4.367-1.619-7.529-4.706-3.163-3.087-4.97-7.604-1.807-4.517-1.807-10.315zm13.553 0q0 6.852 2.785 10.24 2.786 3.388 7.454 3.388 4.743 0 7.529-3.388 2.786-3.388 2.786-10.24 0-6.776-2.748-10.164-2.748-3.388-7.492-3.388-4.668 0-7.491 3.35-2.823 3.351-2.823 10.202zm-527.123 61.621q1.881-.855 5.9-1.966 4.019-1.112 8.123-1.112 7.182 0 11.97 2.138 4.788 2.137 5.814 6.241 1.881 7.011 3.505 13.082 1.625 6.07 3.164 11.628 1.539 5.558 2.992 11.03 1.454 5.472 2.822 11.457h.855q1.539-10.431 2.736-19.922 1.197-9.491 2.223-18.639 1.026-9.149 2.052-18.126 1.026-8.978 2.052-18.212 6.327-3.591 13.509-3.591 6.327 0 10.944 2.736 4.617 2.736 4.617 9.234 0 3.762-.769 10.688-.77 6.925-2.052 15.475-1.283 8.55-2.993 17.955-1.71 9.406-3.591 17.956-1.881 8.55-3.847 15.475-1.967 6.926-3.677 10.688-2.565 2.394-8.379 3.933-5.814 1.539-11.97 1.539-8.037 0-13.595-2.137-5.557-2.138-6.754-6.071-2.223-6.84-4.788-16.245-2.565-9.405-5.472-20.691-2.394 11.115-4.959 21.717-2.566 10.602-4.618 17.955-2.565 2.394-7.695 3.933-5.13 1.539-11.286 1.539-7.695 0-13.936-2.137-6.242-2.138-8.123-6.071-1.539-3.078-3.335-9.149-1.795-6.07-3.676-13.851-1.881-7.78-3.848-16.843-1.966-9.064-3.591-18.127-1.624-9.063-2.992-17.698-1.368-8.636-2.052-15.818 2.394-2.223 6.669-4.104 4.275-1.881 9.234-1.881 6.498 0 10.688 2.821 4.189 2.822 5.215 9.491 2.736 17.442 4.532 29.07 1.795 11.628 2.907 19.067 1.111 7.439 1.624 11.543.513 4.104 1.026 6.498h.855q1.539-6.84 2.907-12.654 1.368-5.814 2.822-11.714 1.453-5.9 2.992-12.654 1.539-6.755 3.249-15.476zm143.984-22.23q2.907-1.71 8.807-3.249 5.899-1.539 11.884-1.539 8.55 0 15.134 2.479 6.584 2.48 8.465 7.781 3.078 8.892 6.669 20.691 3.591 11.799 7.182 24.368 3.591 12.569 7.011 24.795 3.42 12.227 5.985 21.632-2.052 2.394-6.156 3.848-4.104 1.453-9.747 1.453-4.104 0-6.926-.684-2.821-.684-4.617-2.052-1.795-1.368-2.907-3.591-1.111-2.223-1.966-5.13l-3.078-11.799h-30.952q-1.368 5.13-2.736 10.602-1.368 5.472-2.736 10.602-2.394.855-5.044 1.454-2.651.598-6.413.598-8.721 0-12.911-2.992-4.189-2.993-4.189-8.294 0-2.394.684-4.788.684-2.394 1.539-5.643 1.197-4.617 3.334-11.457 2.138-6.84 4.703-14.792 2.565-7.952 5.472-16.331 2.907-8.379 5.472-15.817 2.565-7.439 4.703-13.253 2.137-5.814 3.334-8.892zm21.546 22.059h-1.026q-2.394 7.182-5.386 15.989-2.993 8.806-5.387 17.87h21.205q-2.395-9.235-4.874-18.041-2.48-8.807-4.532-15.818zm122.438 39.673-7.182-2.394q-7.524-2.565-13.68-5.216-6.156-2.651-10.603-6.413-4.446-3.762-6.925-8.977-2.48-5.216-2.48-12.74 0-14.535 11.201-23.256 11.201-8.721 31.379-8.721 7.353 0 13.68 1.026 6.327 1.026 10.859 3.163 4.531 2.138 7.096 5.472 2.565 3.335 2.565 7.781 0 4.446-2.052 7.61-2.052 3.163-4.959 5.386-3.762-2.394-10.089-4.189-6.327-1.796-13.851-1.796-7.695 0-11.286 2.138-3.591 2.137-3.591 5.386 0 2.565 2.223 4.19 2.223 1.624 6.669 2.992l9.063 2.907q16.074 5.13 24.71 13.082 8.635 7.952 8.635 21.632 0 14.535-11.457 23.512-11.457 8.978-33.687 8.978-7.866 0-14.621-1.282-6.754-1.283-11.799-3.762-5.045-2.48-7.866-6.157-2.822-3.676-2.822-8.464 0-4.959 2.907-8.465 2.907-3.505 6.327-5.386 4.789 3.762 11.714 6.498 6.926 2.736 15.134 2.736 8.379 0 11.799-2.565 3.42-2.565 3.42-5.985 0-3.42-2.736-5.216-2.736-1.795-7.695-3.505zm100.72-40.87h-25.65q-1.197-1.881-2.223-5.13-1.026-3.249-1.026-6.84 0-6.669 2.992-9.576 2.993-2.907 7.781-2.907h74.557q1.197 1.881 2.223 5.13 1.026 3.249 1.026 6.84 0 6.669-2.993 9.576-2.992 2.907-7.78 2.907h-18.982v79.003q-1.881.513-5.899 1.026-4.019.513-7.952.513-3.933 0-6.925-.598-2.993-.599-5.045-2.138-2.052-1.539-3.078-4.275-1.026-2.736-1.026-7.182zm96.445 64.297v-72.334q0-7.353 4.275-11.628 4.275-4.275 11.628-4.275h56.431q1.197 1.881 2.138 4.959.94 3.078.94 6.498 0 6.498-2.821 9.234-2.822 2.736-7.439 2.736h-36.081v15.903h38.475q1.197 1.881 2.138 4.874.94 2.992.94 6.412 0 6.499-2.736 9.235-2.736 2.736-7.353 2.736h-31.464v17.955h43.947q1.197 1.881 2.138 4.959.94 3.078.94 6.498 0 6.498-2.821 9.32-2.822 2.821-7.439 2.821h-49.933q-7.353 0-11.628-4.275-4.275-4.275-4.275-11.628z" fill="#fff" stroke="#fff"/></mask><mask id="b" height="469.49" stroke-width="0" width="468.907" x="-117.227" y="-117.373"><path d="m42.667 382.627h234.454v234.745h-234.454z"/><g fill="#fff" stroke="#fff"><path d="m62.205 500a97.689 97.689 0 1 0 195.378 0 97.689 97.689 0 1 0 -195.378 0z" fill="#fff"/><g fill="#000" stroke="none" stroke-width="1" transform="matrix(1.39 0 0 1.39 90.4008 430.50738)"><path d="m91.839 42.628c-1.405-1.405-3.274-2.18-5.262-2.18s-3.856.774-5.26 2.18l-11.33 11.331c-.597-.4-1.247-.709-1.934-.921-.03-.009-.061-.017-.091-.025-.286-.084-.577-.15-.873-.2-.073-.012-.145-.025-.218-.036-.333-.046-.671-.076-1.013-.076 0 0 0 0-.001 0s-.001 0-.001 0l-34.162.006c-3.066 0-5.976 1.175-8.22 3.335l-16.908 16.893c-.375.375-.586.883-.586 1.415 0 .53.21 1.039.586 1.414l15.39 15.392c.375.375.884.586 1.414.586.531 0 1.04-.211 1.415-.586l7.249-7.251h25.973c1.987 0 3.854-.773 5.259-2.179l28.573-28.573c1.407-1.405 2.181-3.273 2.181-5.262s-.774-3.858-2.181-5.263zm-2.828 7.695-28.573 28.574c-.649.649-1.513 1.007-2.436 1.007h-26.797c-.531 0-1.04.211-1.415.586l-6.42 6.422-12.561-12.561 15.465-15.453c1.468-1.413 3.393-2.191 5.42-2.191l34.162-.007c1.02 0 1.984.467 2.648 1.281.031.038.07.067.103.103.448.597.691 1.302.691 2.056 0 .92-.358 1.784-1.008 2.435-.649.649-1.512 1.007-2.43 1.007-.001 0-.002 0-.002 0h-18.845c-1.104 0-2 .896-2 2s.896 2 2 2h18.844.005c1.986 0 3.853-.773 5.258-2.179s2.179-3.274 2.179-5.263c0-1.086-.264-2.146-.716-3.121l11.563-11.562c1.3-1.301 3.565-1.298 4.865 0 .65.65 1.009 1.516 1.009 2.435s-.358 1.781-1.009 2.431z"/><path d="m47.957 46.16c.082 0 .163-.013.243-.023.054.006.105.019.16.02.156.002.311.004.466.004 6.83 0 13.229-2.646 18.064-7.48 4.945-4.945 7.601-11.525 7.476-18.529-.019-1.077-.887-1.945-1.964-1.965-5.682-.118-11.088 1.623-15.569 4.928-.867-5.421-3.447-10.393-7.486-14.293-.775-.748-2.002-.749-2.778-.001-5.042 4.863-7.818 11.395-7.818 18.389 0 6.995 2.776 13.526 7.817 18.392.387.372.888.558 1.389.558zm16.105-10.308c-3.181 3.181-7.167 5.242-11.502 5.988 2.825-4.021 4.413-8.753 4.58-13.752 3.631-3.438 8.225-5.483 13.172-5.847-.38 5.146-2.559 9.919-6.25 13.611zm-16.105-22.686c3.37 3.907 5.204 8.823 5.204 14.044s-1.834 10.136-5.205 14.043c-3.371-3.907-5.206-8.823-5.206-14.045s1.836-10.137 5.207-14.042z"/></g></g></mask><mask id="c" height="39.5" stroke-width="0" width="1258.64" x="-314.66" y="-9.875"><path d="m335.578 589.06h629.32v19.75h-629.32z"/><path d="m353.864 604.955-1.578-.631-4.848-13.347-3.607.068-4.96 13.279-1.645.631v1.916h6.808v-1.916l-1.758-.631.563-1.624h5.005l.541 1.646-1.691.609v1.916h7.17zm-6.764-4.667h-3.472l1.781-5.343zm19.028 1.691h-2.299v4.329s2.48.856 5.027.856c3.472 0 6.087-1.848 6.087-5.23 0-5.298-7.597-4.261-7.597-6.876 0-.902.789-1.601 2.389-1.601.97 0 1.984.338 1.984.338l.564 1.916h2.074l.113-4.103s-2.413-.901-4.96-.901c-3.269 0-5.726 1.668-5.726 4.779 0 5.569 7.62 4.396 7.62 7.034 0 1.195-1.285 1.826-2.728 1.826-1.308 0-2.21-.473-2.21-.473zm12.422 4.892h6.877v-1.916l-1.691-.676v-10.597l1.691-.676v-2.029l-6.877.113v1.916l1.691.676v10.597l-1.691.676zm10.146 0h6.425v-1.916l-1.736-.676v-8.094l.383 1.172 2.593 5.343 2.435-.112 2.547-5.298.609-1.488v8.477l-1.759.676v1.916h6.719v-1.916l-1.691-.676v-10.597l1.623-.676v-2.029l-5.411.113-3.539 7.394-3.382-7.507-5.816.113v1.916l1.69.676v10.597l-1.69.676zm21.372 0h6.876v-1.916l-1.691-.676v-2.931h1.195c4.104 0 6.426-1.849 6.426-5.637 0-2.93-2.029-4.734-5.479-4.734h-2.142l-5.185.113v1.916l1.691.676v10.597l-1.691.676zm5.185-8.161v-5.028h1.804c1.533 0 2.322 1.015 2.322 2.48 0 1.669-1.059 2.548-2.931 2.548zm18.961 5.456h-3.45v-10.484l1.691-.676v-2.029l-6.876.113v1.916l1.691.676v10.597l-1.691.676v1.916h11.272v-5.185h-2.141zm15.195-6.764h-4.554v-3.72h3.72l.563 1.646h2.029v-4.351h-6.312l-5.185.113v1.916l1.69.676v10.597l-1.69.676v1.916h11.768v-4.554h-2.029l-.519 1.849h-4.035v-4.284h4.554zm23.604-1.578h2.097l.113-4.058s-2.525-1.059-5.253-1.059c-4.622 0-7.598 3.156-7.598 8.454 0 5.23 2.638 7.981 7.215 7.981 3.81 0 6.132-1.511 6.132-1.511v-4.599l1.533-.518v-1.962l-6.493.113v1.849l1.691.518v2.841s-1.308.406-2.48.406c-2.412 0-3.833-1.579-3.833-5.231 0-3.765 1.353-5.523 3.765-5.523 1.488 0 2.548.36 2.548.36zm12.558-2.142 1.758-.676v-2.029l-6.921.113v1.916l1.669.676v7.102c0 4.351 1.803 6.358 6.335 6.358 4.847 0 6.515-2.345 6.515-6.696v-6.764l1.691-.676v-2.029l-6.944.113v1.916l1.759.676v6.764c0 2.66-.519 3.945-2.909 3.945-2.209 0-2.953-1.014-2.953-3.607zm14.316 13.189h6.876v-1.916l-1.691-.676v-10.597l1.691-.676v-2.029l-6.876.113v1.916l1.691.676v10.597l-1.691.676zm11.949-2.592-1.691.676v1.916h6.989c4.576 0 7.507-3.088 7.507-8.161s-2.66-7.733-7.169-7.733h-2.142l-5.185.113v1.916l1.691.676zm3.494-.113v-10.484h2.029c2.21 0 3.495 1.353 3.495 5.141 0 4.058-1.466 5.343-3.653 5.343zm22.771-6.764h-4.555v-3.72h3.72l.564 1.646h2.029v-4.351h-6.313l-5.185.113v1.916l1.691.676v10.597l-1.691.676v1.916h11.769v-4.554h-2.029l-.519 1.849h-4.036v-4.284h4.555zm16.728 6.877-2.142.676v1.916h7.778v-1.916l-2.142-.676v-10.597h2.142l.564 2.142h2.096v-4.847h-13.076v4.847h2.074l.564-2.142h2.142zm18.78-13.572c-4.577 0-7.44 3.156-7.44 8.341 0 5.298 2.48 8.116 6.989 8.116s7.552-3.381 7.552-8.454c0-5.028-2.592-8.003-7.101-8.003zm-.113 2.818c2.255 0 3.382 1.578 3.382 5.298 0 4.058-1.353 5.523-3.607 5.523-2.255 0-3.269-1.691-3.269-5.411 0-4.013 1.24-5.41 3.494-5.41zm20.606 8.454h-2.3v4.329s2.48.856 5.028.856c3.472 0 6.087-1.848 6.087-5.23 0-5.298-7.598-4.261-7.598-6.876 0-.902.79-1.601 2.39-1.601.97 0 1.984.338 1.984.338l.564 1.916h2.074l.113-4.103s-2.413-.901-4.96-.901c-3.269 0-5.727 1.668-5.727 4.779 0 5.569 7.621 4.396 7.621 7.034 0 1.195-1.286 1.826-2.728 1.826-1.308 0-2.21-.473-2.21-.473zm17.472-8.297 1.759-.676v-2.029l-6.921.113v1.916l1.668.676v7.102c0 4.351 1.803 6.358 6.335 6.358 4.847 0 6.515-2.345 6.515-6.696v-6.764l1.691-.676v-2.029l-6.943.113v1.916l1.758.676v6.764c0 2.66-.519 3.945-2.908 3.945-2.21 0-2.954-1.014-2.954-3.607zm17.112 8.297h-2.3v4.329s2.48.856 5.028.856c3.472 0 6.087-1.848 6.087-5.23 0-5.298-7.598-4.261-7.598-6.876 0-.902.789-1.601 2.39-1.601.97 0 1.984.338 1.984.338l.564 1.916h2.074l.113-4.103s-2.413-.901-4.96-.901c-3.269 0-5.727 1.668-5.727 4.779 0 5.569 7.62 4.396 7.62 7.034 0 1.195-1.285 1.826-2.728 1.826-1.307 0-2.209-.473-2.209-.473zm16.525 2.3-2.141.676v1.916h7.778v-1.916l-2.142-.676v-10.597h2.142l.563 2.142h2.097v-4.847h-13.076v4.847h2.074l.564-2.142h2.141zm26.851.676-1.578-.631-4.847-13.347-3.607.068-4.96 13.279-1.646.631v1.916h6.809v-1.916l-1.759-.631.564-1.624h5.005l.541 1.646-1.691.609v1.916h7.169zm-6.763-4.667h-3.472l1.781-5.343zm9.356 6.583h6.876v-1.916l-1.691-.676v-10.597l1.691-.676v-2.029l-6.876.113v1.916l1.691.676v10.597l-1.691.676zm10.145 0h6.538v-1.916l-1.758-.676v-7.621l6.042 10.213h3.765v-13.189l1.69-.676v-2.029l-6.425.113v1.916l1.646.676v7.711l-6.087-10.416-5.411.113v1.916l1.691.676v10.597l-1.691.676zm35.283-1.916-1.578-.631-4.847-13.347-3.608.068-4.959 13.279-1.646.631v1.916h6.808v-1.916l-1.758-.631.563-1.624h5.005l.541 1.646-1.69.609v1.916h7.169zm-6.764-4.667h-3.472l1.782-5.343zm14.429-9.311-5.185.113v1.916l1.691.676v10.597l-1.691.676v1.916h7.169c3.652 0 5.862-1.353 5.862-4.667 0-1.736-1.105-2.998-3.224-3.607 1.781-.563 2.705-1.758 2.705-3.72 0-2.66-2.029-3.9-4.96-3.9zm0 6.493v-3.788h1.916c1.083 0 1.917.519 1.917 1.691 0 1.398-.88 2.097-2.525 2.097zm0 6.696v-4.329h1.308c2.029 0 2.976.722 2.976 2.367 0 1.24-.835 1.962-2.413 1.962zm19.749 0h-3.449v-10.484l1.691-.676v-2.029l-6.876.113v1.916l1.691.676v10.597l-1.691.676v1.916h11.272v-5.185h-2.142zm15.196-6.764h-4.554v-3.72h3.72l.563 1.646h2.029v-4.351h-6.312l-5.186.113v1.916l1.691.676v10.597l-1.691.676v1.916h11.769v-4.554h-2.029l-.519 1.849h-4.035v-4.284h4.554zm28.474 7.553-1.578-.631-4.847-13.347-3.608.068-4.959 13.279-1.646.631v1.916h6.808v-1.916l-1.758-.631.563-1.624h5.005l.541 1.646-1.69.609v1.916h7.169zm-6.764-4.667h-3.472l1.782-5.343zm17.766 3.878h-3.45v-10.484l1.691-.676v-2.029l-6.876.113v1.916l1.691.676v10.597l-1.691.676v1.916h11.273v-5.185h-2.142zm9.446.113-2.142.676v1.916h7.778v-1.916l-2.141-.676v-10.597h2.141l.564 2.142h2.097v-4.847h-13.076v4.847h2.074l.563-2.142h2.142zm20.854-6.877h-4.554v-3.72h3.72l.564 1.646h2.029v-4.351h-6.313l-5.185.113v1.916l1.691.676v10.597l-1.691.676v1.916h11.768v-4.554h-2.029l-.518 1.849h-4.036v-4.284h4.554zm5.636 9.469h6.809v-1.916l-1.623-.676v-3.653h.789c1.195 0 1.397.361 2.164 2.074l1.894 4.171h4.171v-1.916l-1.533-.564-1.511-3.088c-.361-.744-.699-1.173-.947-1.466 1.533-.766 2.548-2.142 2.548-4.261 0-3.066-2.165-4.599-5.862-4.599h-1.713l-5.186.113v1.916l1.691.676v10.597l-1.691.676zm5.186-8.612v-4.577h1.848c1.398 0 2.255.925 2.255 2.21 0 1.51-1.037 2.367-2.818 2.367zm11.61 8.612h6.538v-1.916l-1.758-.676v-7.621l6.042 10.213h3.765v-13.189l1.691-.676v-2.029l-6.426.113v1.916l1.646.676v7.711l-6.087-10.416-5.411.113v1.916l1.691.676v10.597l-1.691.676zm35.283-1.916-1.578-.631-4.847-13.347-3.608.068-4.959 13.279-1.646.631v1.916h6.808v-1.916l-1.758-.631.564-1.624h5.004l.542 1.646-1.691.609v1.916h7.169zm-6.764-4.667h-3.471l1.781-5.343zm13.46 3.991-2.142.676v1.916h7.778v-1.916l-2.142-.676v-10.597h2.142l.564 2.142h2.096v-4.847h-13.076v4.847h2.074l.564-2.142h2.142zm11.002 2.592h6.876v-1.916l-1.691-.676v-10.597l1.691-.676v-2.029l-6.876.113v1.916l1.691.676v10.597l-1.691.676zm9.469-13.865 1.533.631 4.554 13.234h3.607l4.757-13.189 1.646-.676v-2.029l-6.741.113v1.916l1.713.676-2.232 6.561-.721 2.66-.722-2.773-2.074-6.47 1.668-.654v-2.029l-6.988.113zm28.541 4.396h-4.554v-3.72h3.72l.564 1.646h2.029v-4.351h-6.313l-5.185.113v1.916l1.691.676v10.597l-1.691.676v1.916h11.768v-4.554h-2.029l-.518 1.849h-4.036v-4.284h4.554zm8.545 4.577h-2.3v4.329s2.48.856 5.028.856c3.472 0 6.087-1.848 6.087-5.23 0-5.298-7.598-4.261-7.598-6.876 0-.902.789-1.601 2.39-1.601.97 0 1.984.338 1.984.338l.564 1.916h2.074l.113-4.103s-2.413-.901-4.96-.901c-3.269 0-5.727 1.668-5.727 4.779 0 5.569 7.62 4.396 7.62 7.034 0 1.195-1.285 1.826-2.728 1.826-1.307 0-2.209-.473-2.209-.473z" fill="#fff" stroke="#fff"/></mask><path d="m-166.667 0h1333.333v1000h-1333.333z" fill="#fff"/><g mask="url(#a)"><path d="m12.119 352.225h957.74v295.55h-957.74z" fill="#81a051"/><g mask="url(#b)"><path d="m42.667 382.627h234.454v234.745h-234.454z" fill="#fff"/></g></g><g mask="url(#c)"><path d="m335.578 589.06h629.32v19.75h-629.32z" fill="#3b3d45"/></g><g fill="none" opacity="0" stroke-dasharray="22.727267" stroke-width="3.787878"><path d="m26.748047 366.854248h266.291533v266.291533h-266.291533z" stroke="#fff"/><path d="m26.748047 366.854248h266.291533v266.291533h-266.291533z" stroke="#000" stroke-dashoffset="22.727267"/></g></svg>